<?xml version="1.0" encoding="UTF-8"?>
<!-- Generator: visioncortex VTracer 0.6.4 -->
<svg version="1.1" xmlns="http://www.w3.org/2000/svg" width="120" height="118">
<path d="M0 0 C39.6 0 79.2 0 120 0 C120 38.94 120 77.88 120 118 C80.4 118 40.8 118 0 118 C0 79.06 0 40.12 0 0 Z " fill="#FBFCFB" transform="translate(0,0)"/>
<path d="M0 0 C3.05 1.46 3.05 1.46 6.25 3.32 C6.84 3.65 7.42 3.99 8.02 4.33 C9.87 5.4 11.72 6.48 13.56 7.56 C15.38 8.61 17.19 9.66 19.01 10.7 C20.22 11.4 21.42 12.12 22.61 12.86 C25.61 14.7 28.46 16.23 31.77 17.42 C35.94 19.18 38.17 20.43 41 24 C43.17 32.23 42.21 41.09 41.81 49.5 C41.75 51.87 41.69 54.24 41.63 56.62 C41.49 62.42 41.27 68.21 41 74 C39.86 74.63 38.71 75.25 37.53 75.9 C26.96 81.71 16.63 87.78 6.45 94.24 C5.42 94.88 4.39 95.51 3.32 96.17 C2.42 96.74 1.51 97.31 0.58 97.9 C-2.51 99.22 -3.85 99.05 -7 98 C-10.26 96.26 -13.38 94.42 -16.48 92.4 C-21.05 89.49 -25.24 87.53 -30.45 85.98 C-37.45 83.55 -44.53 81.02 -48 74 C-50.27 65.71 -50.14 57.03 -50.06 48.5 C-50.06 47.35 -50.06 46.21 -50.05 45.03 C-50.01 41.69 -49.89 38.37 -49.72 35.03 C-49.69 34.01 -49.66 32.99 -49.63 31.95 C-49.31 27.87 -49.08 25.07 -46.11 22.12 C-43.8 20.55 -41.48 19.25 -39 18 C-37.91 17.34 -36.82 16.68 -35.7 16.01 C-34.71 15.43 -33.71 14.86 -32.68 14.27 C-31.01 13.31 -31.01 13.31 -29.31 12.34 C-28.18 11.69 -27.04 11.04 -25.88 10.38 C-24.73 9.72 -23.59 9.07 -22.42 8.39 C-20.23 7.14 -18.04 5.89 -15.85 4.64 C-14.16 3.67 -12.49 2.67 -10.85 1.61 C-6.72 -1.03 -4.7 -1.18 0 0 Z " fill="#F8F8F7" transform="translate(63,12)"/>
<path d="M0 0 C4.08 3.65 6.83 8.01 9.79 12.56 C10.33 13.39 10.88 14.22 11.44 15.07 C12.59 16.82 13.73 18.57 14.87 20.32 C16.62 22.99 18.38 25.67 20.13 28.34 C21.25 30.04 22.36 31.74 23.48 33.44 C24 34.24 24.52 35.03 25.06 35.86 C25.8 36.98 25.8 36.98 26.54 38.12 C26.97 38.78 27.4 39.43 27.84 40.1 C29.01 42.02 30.02 43.97 31 46 C23.13 45.57 15.64 44.98 8 43 C7.77 43.64 7.55 44.28 7.31 44.94 C5.51 49.13 3.26 53.04 1 57 C-1.68 54.58 -3.37 51.92 -5.19 48.81 C-5.72 47.91 -6.25 47.01 -6.79 46.08 C-7.19 45.39 -7.59 44.71 -8 44 C-15.34 44.59 -22.67 45.24 -30 46 C-28.75 42.63 -27.33 39.75 -25.31 36.78 C-24.5 35.58 -24.5 35.58 -23.68 34.36 C-23.11 33.51 -22.53 32.67 -21.93 31.8 C-21.34 30.92 -20.75 30.04 -20.13 29.14 C-18.24 26.34 -16.34 23.54 -14.44 20.75 C-13.15 18.85 -11.87 16.96 -10.59 15.06 C-9.37 13.27 -8.15 11.47 -6.93 9.67 C-6.35 8.82 -5.78 7.96 -5.18 7.08 C-4.64 6.3 -4.11 5.51 -3.56 4.71 C-3.09 4.01 -2.62 3.32 -2.13 2.61 C-1 1 -1 1 0 0 Z " fill="#141414" transform="translate(59,23)"/>
<path d="M0 0 C3.05 1.46 3.05 1.46 6.25 3.32 C6.84 3.65 7.42 3.99 8.02 4.33 C9.87 5.4 11.72 6.48 13.56 7.56 C15.38 8.61 17.19 9.66 19.01 10.7 C20.22 11.4 21.42 12.12 22.61 12.86 C25.61 14.7 28.46 16.23 31.77 17.42 C35.94 19.18 38.17 20.43 41 24 C43.17 32.23 42.21 41.09 41.81 49.5 C41.75 51.87 41.69 54.24 41.63 56.62 C41.49 62.42 41.27 68.21 41 74 C39.86 74.63 38.71 75.25 37.53 75.9 C26.96 81.71 16.63 87.78 6.45 94.24 C5.42 94.88 4.39 95.51 3.32 96.17 C2.42 96.74 1.51 97.31 0.58 97.9 C-2.51 99.22 -3.85 99.05 -7 98 C-10.26 96.26 -13.38 94.42 -16.48 92.4 C-21.05 89.49 -25.24 87.53 -30.45 85.98 C-37.45 83.55 -44.53 81.02 -48 74 C-50.27 65.71 -50.14 57.03 -50.06 48.5 C-50.06 47.35 -50.06 46.21 -50.05 45.03 C-50.01 41.69 -49.89 38.37 -49.72 35.03 C-49.69 34.01 -49.66 32.99 -49.63 31.95 C-49.31 27.87 -49.08 25.07 -46.11 22.12 C-43.8 20.55 -41.48 19.25 -39 18 C-37.91 17.34 -36.82 16.68 -35.7 16.01 C-34.71 15.43 -33.71 14.86 -32.68 14.27 C-31.01 13.31 -31.01 13.31 -29.31 12.34 C-28.18 11.69 -27.04 11.04 -25.88 10.38 C-24.73 9.72 -23.59 9.07 -22.42 8.39 C-20.23 7.14 -18.04 5.89 -15.85 4.64 C-14.16 3.67 -12.49 2.67 -10.85 1.61 C-6.72 -1.03 -4.7 -1.18 0 0 Z M-12.31 6.69 C-13.64 7.51 -14.98 8.32 -16.31 9.14 C-17.04 9.59 -17.78 10.04 -18.54 10.51 C-24.27 13.98 -30.07 17.35 -35.85 20.74 C-36.76 21.28 -37.68 21.82 -38.62 22.38 C-39.44 22.86 -40.26 23.34 -41.1 23.84 C-42.94 24.86 -42.94 24.86 -44 26 C-44.09 27.44 -44.12 28.89 -44.11 30.34 C-44.11 31.26 -44.11 32.18 -44.11 33.13 C-44.11 34.13 -44.1 35.13 -44.1 36.16 C-44.1 37.18 -44.09 38.2 -44.09 39.25 C-44.09 42.52 -44.08 45.79 -44.06 49.06 C-44.06 51.27 -44.05 53.49 -44.05 55.7 C-44.04 61.13 -44.02 66.57 -44 72 C-37.72 75.58 -37.72 75.58 -31.44 79.14 C-26.93 81.72 -22.44 84.32 -18.03 87.06 C-17.27 87.52 -16.52 87.99 -15.74 88.47 C-14.32 89.35 -12.91 90.24 -11.51 91.14 C-8.57 92.94 -6.63 94.04 -3.15 93.8 C0.31 92.92 2.85 91.64 5.92 89.83 C7.03 89.19 8.14 88.54 9.28 87.87 C10.44 87.19 11.59 86.5 12.75 85.81 C13.88 85.15 15.01 84.49 16.17 83.81 C19.46 81.89 22.73 79.95 26 78 C27 77.41 27.99 76.82 29.02 76.21 C33.24 73.92 33.24 73.92 37 71 C39.1 57.35 42.25 35.09 35.13 22.76 C30.24 18.09 24.37 15.99 18 14.02 C13.23 12.39 9.11 9.79 4.81 7.19 C-2.36 3.07 -5.22 2.24 -12.31 6.69 Z " fill="#151515" transform="translate(63,12)"/>
<path d="M0 0 C0.33 0 0.66 0 1 0 C0.38 6.48 -0.67 12.71 -2.06 19.06 C-2.25 19.93 -2.44 20.79 -2.63 21.69 C-3.08 23.79 -3.54 25.9 -4 28 C-8.95 28.66 -13.9 29.32 -19 30 C-17.35 25.88 -15.78 22.92 -13.34 19.3 C-12.63 18.23 -11.92 17.17 -11.19 16.08 C-10.82 15.53 -10.45 14.99 -10.07 14.42 C-8.93 12.74 -7.81 11.06 -6.68 9.38 C-1.17 1.17 -1.17 1.17 0 0 Z " fill="#F0F0F0" transform="translate(55,35)"/>
<path d="M0 0 C3.11 2.93 5.49 5.98 7.86 9.54 C8.56 10.59 9.26 11.65 9.99 12.74 C10.72 13.83 11.44 14.93 12.19 16.06 C12.93 17.18 13.68 18.29 14.42 19.4 C19.87 27.61 19.87 27.61 21 31 C13.58 30.01 13.58 30.01 6 29 C4.4 23.41 3.06 17.93 1.88 12.25 C1.69 11.4 1.51 10.55 1.32 9.68 C1.15 8.86 0.98 8.04 0.8 7.2 C0.65 6.47 0.49 5.73 0.34 4.97 C0 3 0 3 0 0 Z " fill="#EFF0EF" transform="translate(62,34)"/>
<path d="M0 0 C2.42 3.63 2.92 7.04 3.62 11.25 C3.76 11.99 3.89 12.73 4.03 13.49 C5.44 21.66 5.59 26.97 1 34 C-1.68 31.5 -3.61 29.4 -5 26 C-4.58 17.29 -2.75 8.26 0 0 Z " fill="#EDEDED" transform="translate(59,39)"/>
<path d="M0 0 C2.63 0.12 4.44 0.51 6.44 2.27 C7.96 3.95 9.4 5.67 10.81 7.44 C11.31 8.04 11.82 8.64 12.33 9.25 C16 13.71 16 13.71 16 16 C20.43 11.73 24.1 7.11 27.82 2.23 C28.54 1.49 29.26 0.76 30 0 C31.32 0 32.64 0 34 0 C32.3 3.89 29.77 7.11 27.19 10.44 C26.76 11 26.34 11.56 25.9 12.13 C23.15 15.7 20.24 18.88 17 22 C0 2.16 0 2.16 0 0 Z " fill="#161616" transform="translate(42,75)"/>
<path d="M0 0 C0.66 0 1.32 0 2 0 C1.34 3.63 0.68 7.26 0 11 C-0.99 11 -1.98 11 -3 11 C-2.53 6.94 -2.12 3.53 0 0 Z " fill="#0A0A0A" transform="translate(55,48)"/>
<path d="M0 0 C2 3 2 3 2 7 C0 8.75 0 8.75 -2 10 C-1.54 6.53 -1.11 3.33 0 0 Z " fill="#C3C3C3" transform="translate(59,39)"/>
<path d="M0 0 C0.33 0 0.66 0 1 0 C0.67 2.97 0.34 5.94 0 9 C-0.66 8.01 -1.32 7.02 -2 6 C-2.99 6.49 -2.99 6.49 -4 7 C-2.93 4.08 -2.22 2.22 0 0 Z " fill="#CECECE" transform="translate(55,35)"/>
<path d="M0 0 C0 1.65 0 3.3 0 5 C-0.99 5.49 -0.99 5.49 -2 6 C-2.66 6.99 -3.32 7.98 -4 9 C-3.41 2.85 -3.41 2.85 -3 1 C-1 0 -1 0 0 0 Z " fill="#262626" transform="translate(57,43)"/>
</svg>
